<?xml version="1.0" encoding="utf-8"?>
<!-- Generator: Adobe Illustrator 27.6.1, SVG Export Plug-In . SVG Version: 6.00 Build 0)  -->
<svg version="1.1" id="Livello_1" xmlns="http://www.w3.org/2000/svg" xmlns:xlink="http://www.w3.org/1999/xlink" x="0px" y="0px"
	 viewBox="0 0 81.8 42.6" style="enable-background:new 0 0 81.8 42.6;" xml:space="preserve">
<style type="text/css">
	.st0{fill:#D62300;}
</style>
<text transform="matrix(1 0 0 1 -410.6923 676.711)" style="font-family:'PantonRustScript-HeavyBase'; font-size:131.1928px;">Deliveboo</text>
<g>
	<path class="st0" d="M0,15c0.4-4.8,0.7-9.7,0-14.5C0,0.2,0.2,0,0.5,0h7.7c5.7,0,8.3,0.7,8.2,3.7c0,2.7-0.1,5.4,0,8
		c0.1,3-2.5,3.8-8.2,3.8H0.5C0.2,15.5,0,15.3,0,15z M7.4,9.5c0,0.8,0.3,0.9,0.9,0.9c1.7,0,1.7-5.3,0-5.3C7.6,5.1,7.4,5.2,7.4,6
		C7.3,7.2,7.3,8.3,7.4,9.5z"/>
	<path class="st0" d="M18.2,0h12.3C30.8,0,31,0.2,31,0.5v6.3c0,0.3-0.2,0.5-0.6,0.5c-1.5,0.2-3-2.2-4.5-2.2C25,5.1,24.6,6.9,26,7
		c0.5,0,1.1-0.1,1.5-0.2c0.3,0,0.5,0.2,0.5,0.5v0.8c0,0.3-0.2,0.5-0.5,0.5c-0.4,0-1-0.2-1.5-0.1c-1.4,0.1-1,1.9-0.1,1.9
		c1.5,0,3.3-2.2,4.9-2.2c0.3,0,0.6,0.2,0.6,0.5V15c0,0.3-0.2,0.5-0.5,0.5H18.2c-0.3,0-0.5-0.2-0.5-0.5c0.4-4.8,0.6-9.7,0-14.5
		C17.7,0.2,18,0,18.2,0z"/>
	<path class="st0" d="M49.1,10.4V15c0,0.3-0.2,0.5-0.5,0.5H33.2c-0.3,0-0.6-0.2-0.5-0.5c0.6-4.8,0.4-9.7,0-14.5
		c0-0.3,0.2-0.5,0.5-0.5h6.8c0.3,0,0.6,0.2,0.5,0.5c-0.1,1-0.8,6-0.7,8.8c0,1.1,0.4,1.6,1.5,1.6c0.3,0,0.7,0,1.1-0.1
		c1.9-0.3,4.4-1.2,5.7-1.3C48.7,9.5,49.1,9.7,49.1,10.4z M41.4,0.7c-0.1-0.4,0-0.7,0.5-0.7h6.7c0.4,0,0.6,0.3,0.5,0.7
		c-0.6,2-0.5,4.4,0,7.3c0.1,0.4,0,0.7-0.5,0.7H42c-0.6,0-0.7-0.2-0.6-0.8C41.9,5.4,42,3.3,41.4,0.7z"/>
	<path class="st0" d="M50.1,0.5c0-0.3,0.2-0.5,0.5-0.5h6.8c0.3,0,0.6,0.2,0.5,0.5c-0.1,1.1-1.4,10.1,0.8,10.1c2.2,0,0.9-9,0.8-10.1
		C59.5,0.2,59.7,0,60,0h6.8c0.3,0,0.6,0.2,0.5,0.5c-1.5,9.9,0.1,15.3-8.6,15.3C50,15.8,51.6,10.4,50.1,0.5z"/>
	<path class="st0" d="M68.7,0H81c0.3,0,0.4,0.2,0.4,0.5v6.3c0,0.3-0.2,0.5-0.6,0.5c-1.5,0.2-3-2.2-4.5-2.2c-0.8,0-1.3,1.8,0.1,1.9
		c0.5,0,1.1-0.1,1.5-0.2c0.3,0,0.5,0.2,0.5,0.5v0.8c0,0.3-0.2,0.5-0.5,0.5c-0.4,0-1-0.2-1.5-0.1c-1.4,0.1-1,1.9-0.1,1.9
		c1.5,0,3.3-2.2,4.9-2.2c0.3,0,0.6,0.2,0.6,0.5V15c0,0.3-0.2,0.5-0.5,0.5H68.7c-0.3,0-0.5-0.2-0.5-0.5c0.4-4.8,0.6-9.7,0-14.5
		C68.2,0.2,68.4,0,68.7,0z"/>
	<path class="st0" d="M16,17.4c6.5,0,8.6,2.1,8.6,6c0,3.4-2.6,5-5.6,5.4c3.6,0.1,6.8,1.2,6.8,6.3c0,4-3,7-9.8,7H0.8
		c-0.4,0-0.9-0.4-0.8-0.8c1-7.6,0.6-15.5,0-23.1c0-0.5,0.4-0.8,0.8-0.8H16z M13.2,28.1c3.4,0.2,3.5-2.6,0-2.5
		C11.3,25.6,11.1,27.9,13.2,28.1z M13.3,34c3.4,0.1,3.4-3.7,0-3.4C11.1,30.7,11.3,34,13.3,34z"/>
	<path class="st0" d="M40.4,17c9.1,0,13.1,1.6,13.1,6.4c-0.1,4.3-0.1,8.6,0,12.8c0.1,4.9-4,6.4-13.1,6.4c-9.1,0-13.2-1.6-13.1-6.4
		c0.1-4.2,0.1-8.5,0-12.8C27.2,18.5,31.3,17,40.4,17z M40.4,34.4c2.8,0,2.8-9.3,0-9.3C37.6,25.1,37.6,34.4,40.4,34.4z"/>
	<path class="st0" d="M68.8,17c9.1,0,13.1,1.6,13.1,6.4c-0.1,4.3-0.1,8.6,0,12.8c0.1,4.9-4,6.4-13.1,6.4c-9.1,0-13.2-1.6-13.1-6.4
		c0.1-4.2,0.1-8.5,0-12.8C55.5,18.5,59.6,17,68.8,17z M68.8,34.4c2.8,0,2.8-9.3,0-9.3C66,25.1,66,34.4,68.8,34.4z"/>
</g>
</svg>
